<?xml version="1.0" encoding="UTF-8"?>
<svg xmlns="http://www.w3.org/2000/svg" viewBox="0 0 64 64" width="512" height="512"><g id="location-earth-world-pin-delivery"><path d="M35,19a8.009,8.009,0,0,0-8,8c0,4.038,6.421,14.368,7.153,15.532a1,1,0,0,0,1.694,0C36.579,41.368,43,31.038,43,27A8.009,8.009,0,0,0,35,19Zm0,21.087c-2.223-3.7-6-10.521-6-13.087a6,6,0,0,1,12,0C41,29.564,37.223,36.388,35,40.087Z"/><path d="M35,23a4,4,0,1,0,4,4A4,4,0,0,0,35,23Zm0,6a2,2,0,1,1,2-2A2,2,0,0,1,35,29Z"/><path d="M14,29.286a6.007,6.007,0,0,0-6,6c0,2.964,4.626,10.407,5.153,11.246a1,1,0,0,0,1.694,0C15.374,45.693,20,38.25,20,35.286A6.007,6.007,0,0,0,14,29.286Zm0,14.793c-1.806-3.044-4-7.247-4-8.793a4,4,0,0,1,8,0C18,36.832,15.806,41.035,14,44.079Z"/><path d="M54.056,11.689A10.086,10.086,0,0,0,55,8.286,5.993,5.993,0,0,0,44.257,4.624,29.631,29.631,0,0,0,32,2a30.04,30.04,0,1,0,22.056,9.689ZM49,4.286a4,4,0,0,1,4,4c0,1.546-2.194,5.749-4,8.793-1.806-3.044-4-7.247-4-8.793A4,4,0,0,1,49,4.286ZM21.05,6.232l3.185.635.437,1.313-5.814.83A1,1,0,0,0,18.2,10.6l2.653,3.538-2.6,6.076-5.743,2.153,1.455-5.093a1,1,0,0,0-1.408-1.169l-4,2a1,1,0,0,0-.514.621l-2,7a.833.833,0,0,0-.025.11L5.56,28.558l-.986-2.211A28.1,28.1,0,0,1,21.05,6.232ZM4,32c0-.63.029-1.254.07-1.874l1.017,2.281A1,1,0,0,0,6,33a1.1,1.1,0,0,0,.127-.008,1,1,0,0,0,.859-.828l.991-5.943L9.841,19.7l1.573-.786-1.375,4.815a1,1,0,0,0,1.312,1.211l8-3a1,1,0,0,0,.568-.543l3-7A1,1,0,0,0,22.8,13.4l-1.987-2.649,5.329-.761a1,1,0,0,0,.807-1.306l-1-3A1,1,0,0,0,25.2,5.02l-.39-.078A27.909,27.909,0,0,1,32,4c.243,0,.483.014.724.02L28.553,6.105a1,1,0,0,0-.26,1.6L33,12.414v3.909l-9.372,3.748a1,1,0,0,0-.608.733l-2,10a1,1,0,0,0,.273.9l6.354,6.355L23.29,43.29l-5.93,4.941a1,1,0,0,0-.208,1.3l5,8a1,1,0,0,0,.234.259l1.161.9A28.048,28.048,0,0,1,4,32ZM28.13,59.726l-4.376-3.407L19.311,49.21l5.329-4.441a1.105,1.105,0,0,0,.128-.128l5-6a1,1,0,0,0-.061-1.348l-6.622-6.622,1.79-8.943,9.5-3.8A1,1,0,0,0,35,17V12a1,1,0,0,0-.293-.707L30.688,7.274l5.824-2.911a27.4,27.4,0,0,1,6.8,2.028A5.942,5.942,0,0,0,43,8.286c0,2.964,4.626,10.407,5.153,11.246a1,1,0,0,0,1.694,0c.3-.481,1.951-3.134,3.3-5.869a27.763,27.763,0,0,1,5.577,9.984l-2.334,8.747-1.839-1.226A1,1,0,0,0,53,32v7.719L46.243,38.03a1,1,0,0,0-.408-.016l-6,1a1,1,0,0,0-.46,1.767l5,4a1,1,0,0,0,.868.189l3.153-.788,1.451,3.627L44.241,54.35a1,1,0,0,0-.231.792l.288,2.006A27.83,27.83,0,0,1,28.13,59.726Zm18.043-3.592-.119-.827,5.7-6.657a1,1,0,0,0,.17-1.021l-2-5a1,1,0,0,0-1.172-.6l-3.519.88-2.864-2.292,3.585-.6,7.8,1.949a.984.984,0,0,0,.858-.182A1,1,0,0,0,55,41V33.868l1.445.964a1,1,0,0,0,1.521-.574l1.72-6.445A27.987,27.987,0,0,1,46.173,56.134Z"/></g></svg>
